{
  "asset": {
    "version": "2.0",
    "generator": "THREE.GLTFExporter r182"
  },
  "scenes": [
    {
      "nodes": [
        0,
        1,
        2,
        3,
        4,
        5,
        6,
        7,
        8
      ]
    }
  ],
  "scene": 0,
  "nodes": [
    {},
    {
      "matrix": [
        1,
        0,
        0,
        0,
        0,
        1,
        0,
        0,
        0,
        0,
        1,
        0,
        0,
        0,
        10,
        1
      ],
      "extensions": {
        "KHR_lights_punctual": {
          "light": 0
        }
      }
    },
    {
      "matrix": [
        1,
        0,
        0,
        0,
        0,
        1,
        0,
        0,
        0,
        0,
        1,
        0,
        0,
        0,
        -10,
        1
      ],
      "extensions": {
        "KHR_lights_punctual": {
          "light": 1
        }
      }
    },
    {
      "matrix": [
        1,
        0,
        0,
        0,
        0,
        1,
        0,
        0,
        0,
        0,
        1,
        0,
        -10,
        0,
        0,
        1
      ],
      "extensions": {
        "KHR_lights_punctual": {
          "light": 2
        }
      }
    },
    {
      "matrix": [
        1,
        0,
        0,
        0,
        0,
        1,
        0,
        0,
        0,
        0,
        1,
        0,
        10,
        0,
        0,
        1
      ],
      "extensions": {
        "KHR_lights_punctual": {
          "light": 3
        }
      }
    },
    {
      "matrix": [
        1,
        0,
        0,
        0,
        0,
        1,
        0,
        0,
        0,
        0,
        1,
        0,
        0,
        10,
        0,
        1
      ],
      "extensions": {
        "KHR_lights_punctual": {
          "light": 4
        }
      }
    },
    {
      "matrix": [
        1,
        0,
        0,
        0,
        0,
        1,
        0,
        0,
        0,
        0,
        1,
        0,
        0,
        -10,
        0,
        1
      ],
      "extensions": {
        "KHR_lights_punctual": {
          "light": 5
        }
      }
    },
    {
      "matrix": [
        1,
        0,
        0,
        0,
        0,
        1,
        0,
        0,
        0,
        0,
        1,
        0,
        5,
        5,
        5,
        1
      ],
      "extensions": {
        "KHR_lights_punctual": {
          "light": 6
        }
      }
    },
    {
      "mesh": 0
    }
  ],
  "extensions": {
    "KHR_lights_punctual": {
      "lights": [
        {
          "color": [
            1,
            1,
            1
          ],
          "intensity": 0.5,
          "type": "directional"
        },
        {
          "color": [
            1,
            1,
            1
          ],
          "intensity": 0.5,
          "type": "directional"
        },
        {
          "color": [
            1,
            1,
            1
          ],
          "intensity": 0.5,
          "type": "directional"
        },
        {
          "color": [
            1,
            1,
            1
          ],
          "intensity": 0.5,
          "type": "directional"
        },
        {
          "color": [
            1,
            1,
            1
          ],
          "intensity": 0.5,
          "type": "directional"
        },
        {
          "color": [
            1,
            1,
            1
          ],
          "intensity": 0.5,
          "type": "directional"
        },
        {
          "color": [
            1,
            1,
            1
          ],
          "intensity": 1,
          "type": "directional"
        }
      ]
    }
  },
  "bufferViews": [
    {
      "buffer": 0,
      "byteOffset": 0,
      "byteLength": 288,
      "target": 34962,
      "byteStride": 12
    },
    {
      "buffer": 0,
      "byteOffset": 288,
      "byteLength": 288,
      "target": 34962,
      "byteStride": 12
    },
    {
      "buffer": 0,
      "byteOffset": 576,
      "byteLength": 192,
      "target": 34962,
      "byteStride": 8
    },
    {
      "buffer": 0,
      "byteOffset": 768,
      "byteLength": 12,
      "target": 34963
    },
    {
      "buffer": 0,
      "byteOffset": 780,
      "byteLength": 12,
      "target": 34963
    },
    {
      "buffer": 0,
      "byteOffset": 792,
      "byteLength": 12,
      "target": 34963
    },
    {
      "buffer": 0,
      "byteOffset": 804,
      "byteLength": 12,
      "target": 34963
    },
    {
      "buffer": 0,
      "byteOffset": 816,
      "byteLength": 12,
      "target": 34963
    },
    {
      "buffer": 0,
      "byteOffset": 828,
      "byteLength": 12,
      "target": 34963
    }
  ],
  "buffers": [
    {
      "byteLength": 840,
      "uri": "data:application/octet-stream;base64,"
    }
  ],
  "accessors": [
    {
      "bufferView": 0,
      "componentType": 5126,
      "count": 24,
      "max": [
        0.05000000074505806,
        0.05000000074505806,
        0.029999999329447746
      ],
      "min": [
        -0.05000000074505806,
        -0.05000000074505806,
        -0.029999999329447746
      ],
      "type": "VEC3"
    },
    {
      "bufferView": 1,
      "componentType": 5126,
      "count": 24,
      "max": [
        1,
        1,
        1
      ],
      "min": [
        -1,
        -1,
        -1
      ],
      "type": "VEC3"
    },
    {
      "bufferView": 2,
      "componentType": 5126,
      "count": 24,
      "max": [
        1,
        1
      ],
      "min": [
        0,
        0
      ],
      "type": "VEC2"
    },
    {
      "bufferView": 3,
      "componentType": 5123,
      "count": 6,
      "max": [
        3
      ],
      "min": [
        0
      ],
      "type": "SCALAR"
    },
    {
      "bufferView": 4,
      "componentType": 5123,
      "count": 6,
      "max": [
        7
      ],
      "min": [
        4
      ],
      "type": "SCALAR"
    },
    {
      "bufferView": 5,
      "componentType": 5123,
      "count": 6,
      "max": [
        11
      ],
      "min": [
        8
      ],
      "type": "SCALAR"
    },
    {
      "bufferView": 6,
      "componentType": 5123,
      "count": 6,
      "max": [
        15
      ],
      "min": [
        12
      ],
      "type": "SCALAR"
    },
    {
      "bufferView": 7,
      "componentType": 5123,
      "count": 6,
      "max": [
        19
      ],
      "min": [
        16
      ],
      "type": "SCALAR"
    },
    {
      "bufferView": 8,
      "componentType": 5123,
      "count": 6,
      "max": [
        23
      ],
      "min": [
        20
      ],
      "type": "SCALAR"
    }
  ],
  "materials": [
    {
      "pbrMetallicRoughness": {
        "metallicFactor": 0.2,
        "roughnessFactor": 0.3,
        "baseColorTexture": {
          "index": 0,
          "texCoord": 0,
          "extensions": {
            "KHR_texture_transform": {
              "offset": [
                1,
                0
              ]
            }
          }
        }
      },
      "doubleSided": true
    },
    {
      "pbrMetallicRoughness": {
        "metallicFactor": 0.2,
        "roughnessFactor": 0.3,
        "baseColorTexture": {
          "index": 1,
          "texCoord": 0,
          "extensions": {
            "KHR_texture_transform": {
              "offset": [
                1,
                0
              ]
            }
          }
        }
      },
      "doubleSided": true
    },
    {
      "pbrMetallicRoughness": {
        "metallicFactor": 0.2,
        "roughnessFactor": 0.3,
        "baseColorTexture": {
          "index": 2,
          "texCoord": 0,
          "extensions": {
            "KHR_texture_transform": {
              "offset": [
                1,
                0
              ]
            }
          }
        }
      },
      "doubleSided": true
    },
    {
      "pbrMetallicRoughness": {
        "metallicFactor": 0.2,
        "roughnessFactor": 0.3,
        "baseColorTexture": {
          "index": 3,
          "texCoord": 0,
          "extensions": {
            "KHR_texture_transform": {
              "offset": [
                1,
                0
              ]
            }
          }
        }
      },
      "doubleSided": true
    },
    {
      "pbrMetallicRoughness": {
        "metallicFactor": 0.2,
        "roughnessFactor": 0.3,
        "baseColorTexture": {
          "index": 4,
          "texCoord": 0,
          "extensions": {
            "KHR_texture_transform": {
              "offset": [
                1,
                0
              ]
            }
          }
        }
      },
      "doubleSided": true
    },
    {
      "pbrMetallicRoughness": {
        "metallicFactor": 0.2,
        "roughnessFactor": 0.3,
        "baseColorTexture": {
          "index": 5,
          "texCoord": 0,
          "extensions": {
            "KHR_texture_transform": {
              "offset": [
                1,
                0
              ]
            }
          }
        }
      },
      "doubleSided": true
    }
  ],
  "textures": [
    {
      "sampler": 0,
      "source": 0
    },
    {
      "sampler": 1,
      "source": 1
    },
    {
      "sampler": 2,
      "source": 2
    },
    {
      "sampler": 3,
      "source": 3
    },
    {
      "sampler": 4,
      "source": 4
    },
    {
      "sampler": 5,
      "source": 5
    }
  ],
  "samplers": [
    {
      "magFilter": 9729,
      "minFilter": 9987,
      "wrapS": 10497,
      "wrapT": 33071
    },
    {
      "magFilter": 9729,
      "minFilter": 9987,
      "wrapS": 10497,
      "wrapT": 33071
    },
    {
      "magFilter": 9729,
      "minFilter": 9987,
      "wrapS": 10497,
      "wrapT": 33071
    },
    {
      "magFilter": 9729,
      "minFilter": 9987,
      "wrapS": 10497,
      "wrapT": 33071
    },
    {
      "magFilter": 9729,
      "minFilter": 9987,
      "wrapS": 10497,
      "wrapT": 33071
    },
    {
      "magFilter": 9729,
      "minFilter": 9987,
      "wrapS": 10497,
      "wrapT": 33071
    }
  ],
  "images": [
    {
      "mimeType": "image/png",
      "uri": "data:image/png;base64,"
    },
    {
      "mimeType": "image/png",
      "uri": "data:image/png;base64,"
    },
    {
      "mimeType": "image/png",
      "uri": "data:image/png;base64,"
    },
    {
      "mimeType": "image/png",
      "uri": "data:image/png;base64,"
    },
    {
      "mimeType": "image/png",
      "uri": "data:image/png;base64,"
    },
    {
      "mimeType": "image/png",
      "uri": "data:image/png;base64,"
    }
  ],
  "meshes": [
    {
      "primitives": [
        {
          "mode": 4,
          "attributes": {
            "POSITION": 0,
            "NORMAL": 1,
            "TEXCOORD_0": 2
          },
          "indices": 3,
          "material": 0
        },
        {
          "mode": 4,
          "attributes": {
            "POSITION": 0,
            "NORMAL": 1,
            "TEXCOORD_0": 2
          },
          "indices": 4,
          "material": 1
        },
        {
          "mode": 4,
          "attributes": {
            "POSITION": 0,
            "NORMAL": 1,
            "TEXCOORD_0": 2
          },
          "indices": 5,
          "material": 2
        },
        {
          "mode": 4,
          "attributes": {
            "POSITION": 0,
            "NORMAL": 1,
            "TEXCOORD_0": 2
          },
          "indices": 6,
          "material": 3
        },
        {
          "mode": 4,
          "attributes": {
            "POSITION": 0,
            "NORMAL": 1,
            "TEXCOORD_0": 2
          },
          "indices": 7,
          "material": 4
        },
        {
          "mode": 4,
          "attributes": {
            "POSITION": 0,
            "NORMAL": 1,
            "TEXCOORD_0": 2
          },
          "indices": 8,
          "material": 5
        }
      ]
    }
  ],
  "extensionsUsed": [
    "KHR_lights_punctual",
    "KHR_texture_transform"
  ],
  "extensionsRequired": [
    "KHR_lights_punctual"
  ],
  "lights": [
    {
      "name": "DirectionalLight",
      "color": [
        1,
        1,
        1
      ],
      "intensity": 0.5,
      "type": "directional"
    },
    {
      "name": "DirectionalLight",
      "color": [
        1,
        1,
        1
      ],
      "intensity": 0.5,
      "type": "directional"
    },
    {
      "name": "DirectionalLight",
      "color": [
        1,
        1,
        1
      ],
      "intensity": 0.5,
      "type": "directional"
    },
    {
      "name": "DirectionalLight",
      "color": [
        1,
        1,
        1
      ],
      "intensity": 0.5,
      "type": "directional"
    },
    {
      "name": "DirectionalLight",
      "color": [
        1,
        1,
        1
      ],
      "intensity": 0.5,
      "type": "directional"
    },
    {
      "name": "DirectionalLight",
      "color": [
        1,
        1,
        1
      ],
      "intensity": 0.5,
      "type": "directional"
    },
    {
      "name": "DirectionalLight",
      "color": [
        1,
        1,
        1
      ],
      "intensity": 1,
      "type": "directional"
    }
  ]
}